<svg width="160" height="40" xmlns="http://www.w3.org/2000/svg"><g fill="none" fill-rule="evenodd"><path d="M8.563.5c-2.64 0-3.755.216-4.91.833a5.57 5.57 0 0 0-2.32 2.32C.716 4.808.5 5.923.5 8.563v22.874c0 2.64.216 3.755.833 4.91a5.57 5.57 0 0 0 2.32 2.32c1.155.617 2.27.833 4.91.833h142.874c2.64 0 3.755-.216 4.91-.833a5.57 5.57 0 0 0 2.32-2.32c.617-1.155.833-2.27.833-4.91V8.563c0-2.64-.216-3.755-.833-4.91a5.57 5.57 0 0 0-2.32-2.32c-1.155-.617-2.27-.833-4.91-.833H8.563z" stroke="#A6A6A6" fill="#000"/><path d="M48.149 30.495v-9.14h-.06L44.344 30.4h-1.428l-3.753-9.045h-.06v9.14h-1.756V18.076h2.23l4.018 9.803h.069l4.01-9.803h2.238v12.419h-1.764zm3.247-2.573c0-1.584 1.213-2.54 3.365-2.669l2.479-.138v-.688c0-1.007-.663-1.575-1.791-1.575a1.73 1.73 0 0 0-1.902 1.274H51.81c.052-1.636 1.575-2.797 3.692-2.797 2.16 0 3.588 1.179 3.588 2.96v6.206h-1.78v-1.49h-.044a3.237 3.237 0 0 1-2.857 1.645 2.744 2.744 0 0 1-3.012-2.728zm5.844-.818v-.697l-2.23.138c-1.11.069-1.738.55-1.738 1.325 0 .792.654 1.308 1.652 1.308a2.17 2.17 0 0 0 2.316-2.074zm9.653-2.548a2 2 0 0 0-2.134-1.67c-1.428 0-2.375 1.197-2.375 3.082 0 1.928.955 3.09 2.392 3.09a1.948 1.948 0 0 0 2.117-1.627h1.79a3.618 3.618 0 0 1-3.924 3.176c-2.582 0-4.268-1.765-4.268-4.639 0-2.815 1.686-4.639 4.25-4.639a3.64 3.64 0 0 1 3.926 3.227h-1.774zm13.866 2.582h-4.733l-1.137 3.357h-2.005l4.484-12.419h2.083l4.483 12.419h-2.039l-1.136-3.357zm-4.243-1.549h3.752l-1.85-5.447h-.051l-1.85 5.447zm17.1.38c0 2.813-1.505 4.62-3.778 4.62a3.07 3.07 0 0 1-2.848-1.584h-.043v4.485h-1.859V21.44h1.8v1.506h.033a3.212 3.212 0 0 1 2.883-1.6c2.298 0 3.813 1.816 3.813 4.622zm-1.91 0c0-1.834-.947-3.04-2.392-3.04-1.42 0-2.375 1.231-2.375 3.04 0 1.824.955 3.045 2.375 3.045 1.445 0 2.393-1.196 2.393-3.046zm11.876 0c0 2.813-1.506 4.62-3.779 4.62a3.07 3.07 0 0 1-2.848-1.584h-.043v4.485h-1.859V21.44h1.799v1.506h.034a3.212 3.212 0 0 1 2.883-1.6c2.298 0 3.813 1.816 3.813 4.622zm-1.91 0c0-1.834-.948-3.04-2.393-3.04-1.42 0-2.375 1.231-2.375 3.04 0 1.824.955 3.045 2.375 3.045 1.445 0 2.392-1.196 2.392-3.046zm8.496 1.066c.137 1.231 1.333 2.04 2.968 2.04 1.567 0 2.694-.809 2.694-1.92 0-.963-.68-1.54-2.29-1.936l-1.609-.388c-2.28-.55-3.339-1.617-3.339-3.348 0-2.142 1.868-3.614 4.519-3.614 2.624 0 4.423 1.472 4.483 3.614h-1.876c-.112-1.239-1.136-1.987-2.634-1.987-1.497 0-2.521.757-2.521 1.859 0 .878.654 1.394 2.255 1.79l1.368.336c2.548.602 3.606 1.626 3.606 3.442 0 2.324-1.85 3.779-4.793 3.779-2.754 0-4.614-1.421-4.734-3.667h1.903zm11.635-7.737v2.143h1.722v1.471h-1.722v4.992c0 .775.345 1.137 1.102 1.137.204-.004.408-.018.611-.043v1.463c-.34.063-.686.092-1.032.086-1.833 0-2.548-.689-2.548-2.445v-5.19h-1.316v-1.471h1.316v-2.143h1.867zm2.718 6.67c0-2.849 1.678-4.639 4.294-4.639 2.625 0 4.295 1.79 4.295 4.64 0 2.856-1.661 4.638-4.295 4.638-2.633 0-4.294-1.782-4.294-4.639zm6.695 0c0-1.954-.895-3.108-2.401-3.108-1.506 0-2.401 1.163-2.401 3.108 0 1.962.895 3.107 2.4 3.107 1.507 0 2.402-1.145 2.402-3.107zm3.426-4.527h1.773v1.54h.043a2.16 2.16 0 0 1 2.177-1.635c.214 0 .428.022.637.07v1.737a2.598 2.598 0 0 0-.835-.112 1.873 1.873 0 0 0-1.937 2.083v5.37h-1.858v-9.053zm13.198 6.395c-.25 1.643-1.85 2.771-3.898 2.771-2.634 0-4.269-1.765-4.269-4.596 0-2.84 1.644-4.682 4.19-4.682 2.506 0 4.08 1.72 4.08 4.467v.636h-6.394v.113a2.358 2.358 0 0 0 2.436 2.564 2.048 2.048 0 0 0 2.09-1.273h1.765zm-6.282-2.703h4.526a2.177 2.177 0 0 0-2.22-2.298 2.292 2.292 0 0 0-2.306 2.298zM26.997 19.89a4.973 4.973 0 0 0 3.035 4.574 11.4 11.4 0 0 1-1.579 3.216c-.93 1.391-1.905 2.75-3.453 2.776-1.503.034-2.009-.885-3.734-.885-1.74 0-2.28.86-3.722.92-1.474.054-2.6-1.486-3.564-2.864-1.927-2.814-3.427-7.932-1.416-11.414a5.527 5.527 0 0 1 4.651-2.837c1.476-.03 2.846.997 3.753.997.89 0 2.583-1.228 4.329-1.045a5.268 5.268 0 0 1 4.15 2.244 5.146 5.146 0 0 0-2.45 4.317zm-2.84-8.413a4.263 4.263 0 0 1-3.367 1.591 4.821 4.821 0 0 1 1.19-3.495 5.155 5.155 0 0 1 3.335-1.726 5.067 5.067 0 0 1-1.159 3.63zM39.826 8.731a2.64 2.64 0 0 1 2.808 2.965c0 1.906-1.03 3.002-2.808 3.002h-2.155V8.73h2.155zm-1.228 5.123h1.125a1.876 1.876 0 0 0 1.967-2.146 1.881 1.881 0 0 0-1.967-2.134h-1.125v4.28zm5.083-1.41a2.133 2.133 0 1 1 4.247 0 2.134 2.134 0 1 1-4.247 0zm3.333 0c0-.976-.439-1.547-1.208-1.547-.773 0-1.207.571-1.207 1.547 0 .984.434 1.55 1.207 1.55.77 0 1.208-.57 1.208-1.55zm6.56 2.254h-.923l-.93-3.317h-.07l-.927 3.317h-.913l-1.242-4.503h.902l.806 3.436h.067l.926-3.436h.852l.926 3.436h.07l.803-3.436h.889l-1.237 4.503zm2.28-4.503h.855v.715h.066c.231-.527.771-.849 1.344-.802a1.465 1.465 0 0 1 1.559 1.675v2.915h-.889v-2.692c0-.724-.314-1.084-.972-1.084a1.033 1.033 0 0 0-1.075 1.141v2.635h-.888v-4.503zm5.24-1.758h.969v6.26h-.97v-6.26zm2.124 4.007a2.133 2.133 0 1 1 4.247 0 2.134 2.134 0 1 1-4.247 0zm3.333 0c0-.976-.439-1.547-1.208-1.547-.773 0-1.207.571-1.207 1.547 0 .984.434 1.55 1.207 1.55.77 0 1.208-.57 1.208-1.55zm1.85.98c0-.81.603-1.278 1.674-1.344l1.22-.07v-.389c0-.475-.315-.744-.922-.744-.496 0-.84.182-.938.5h-.86c.09-.773.818-1.27 1.84-1.27 1.128 0 1.765.563 1.765 1.514v3.077h-.856v-.633h-.07c-.29.462-.807.732-1.353.707a1.36 1.36 0 0 1-1.5-1.348zm2.894-.384v-.377l-1.1.07c-.62.042-.901.253-.901.65 0 .405.352.64.835.64a1.061 1.061 0 0 0 1.166-.983zm2.053-.596c0-1.423.731-2.324 1.869-2.324a1.484 1.484 0 0 1 1.38.79h.067V8.437h.889v6.26H76.7v-.71h-.07a1.563 1.563 0 0 1-1.414.785c-1.146 0-1.87-.901-1.87-2.328zm.918 0c0 .955.45 1.53 1.203 1.53.749 0 1.212-.583 1.212-1.526 0-.938-.468-1.53-1.212-1.53-.748 0-1.203.58-1.203 1.526zm6.964 0a2.133 2.133 0 1 1 4.247 0 2.134 2.134 0 1 1-4.247 0zm3.333 0c0-.976-.439-1.547-1.208-1.547-.773 0-1.207.571-1.207 1.547 0 .984.434 1.55 1.207 1.55.769 0 1.208-.57 1.208-1.55zm2.106-2.25h.856v.716h.066c.231-.527.77-.849 1.344-.802a1.465 1.465 0 0 1 1.559 1.675v2.915h-.889v-2.692c0-.724-.314-1.084-.972-1.084a1.033 1.033 0 0 0-1.075 1.141v2.635h-.889v-4.503zm8.846-1.12v1.141h.976v.749h-.976v2.315c0 .472.195.679.637.679.113 0 .226-.008.339-.021v.74c-.16.029-.322.044-.484.046-.988 0-1.381-.348-1.381-1.216v-2.543h-.715v-.749h.715V9.074h.89zm2.19-.637h.88v2.481h.07a1.386 1.386 0 0 1 1.374-.806 1.483 1.483 0 0 1 1.55 1.679v2.907h-.889V12.01c0-.72-.335-1.084-.963-1.084a1.052 1.052 0 0 0-1.134 1.142v2.63h-.888V8.437zm9.056 5.045a1.828 1.828 0 0 1-1.95 1.303 2.045 2.045 0 0 1-2.081-2.325 2.077 2.077 0 0 1 2.076-2.352c1.253 0 2.009.856 2.009 2.27v.31h-3.18v.05a1.19 1.19 0 0 0 1.2 1.29 1.08 1.08 0 0 0 1.07-.546h.856zm-3.126-1.451h2.275a1.086 1.086 0 0 0-1.109-1.167 1.152 1.152 0 0 0-1.166 1.167z" fill="#FFF" fill-rule="nonzero"/></g></svg>