<svg width="60px" height="60px" version="1.1" xmlns="http://www.w3.org/2000/svg" xmlns:xlink="http://www.w3.org/1999/xlink">
  <defs>
    <clipPath id="icon">
      <path d="M17.0498368,0 L42.9501632,0 C48.8787629,0 51.0286164,0.617290323 53.1960238,1.77643251 C55.3634313,2.93557469 57.0644253,4.63656873 58.2235675,6.80397617 C59.3827097,8.97138361 60,11.1212371 60,17.0498368 L60,42.9501632 C60,48.8787629 59.3827097,51.0286164 58.2235675,53.1960238 C57.0644253,55.3634313 55.3634313,57.0644253 53.1960238,58.2235675 C51.0286164,59.3827097 48.8787629,60 42.9501632,60 L17.0498368,60 C11.1212371,60 8.97138361,59.3827097 6.80397617,58.2235675 C4.63656873,57.0644253 2.93557469,55.3634313 1.77643251,53.1960238 C0.617290323,51.0286164 0,48.8787629 0,42.9501632 L0,17.0498368 C0,11.1212371 0.617290323,8.97138361 1.77643251,6.80397617 C2.93557469,4.63656873 4.63656873,2.93557469 6.80397617,1.77643251 C8.97138361,0.617290323 11.1212371,0 17.0498368,0 Z"></path>
    </clipPath>
  </defs>    
    <image xlink:href="https://picsum.photos/120/120" height="60px" width="60px" clip-path="url(#icon)"/>
    <path fill="none" stroke="#000000" stroke-opacity="0.1" stroke-width="1" d="M17.0498368,0.5 C11.7200885,0.5 9.42062505,0.944046884 7.0397756,2.2173391 C4.9595024,3.32988139 3.32988139,4.9595024 2.2173391,7.0397756 C0.944046884,9.42062505 0.5,11.7200885 0.5,17.0498368 L0.5,42.9501632 C0.5,48.2799115 0.944046884,50.5793749 2.2173391,52.9602244 C3.32988139,55.0404976 4.9595024,56.6701186 7.0397756,57.7826609 C9.42062505,59.0559531 11.7200885,59.5 17.0498368,59.5 L42.9501632,59.5 C48.2799115,59.5 50.5793749,59.0559531 52.9602244,57.7826609 C55.0404976,56.6701186 56.6701186,55.0404976 57.7826609,52.9602244 C59.0559531,50.5793749 59.5,48.2799115 59.5,42.9501632 L59.5,17.0498368 C59.5,11.7200885 59.0559531,9.42062505 57.7826609,7.0397756 C56.6701186,4.9595024 55.0404976,3.32988139 52.9602244,2.2173391 C50.5793749,0.944046884 48.2799115,0.5 42.9501632,0.5 L17.0498368,0.5 Z"></path>
</svg>